<svg width="276" height="72" viewBox="0 0 276 72" fill="none" xmlns="http://www.w3.org/2000/svg">
<g id="logo">
<g id="Group 81">
<path id="Fill 65" fill-rule="evenodd" clip-rule="evenodd" d="M276 27.2196C275.381 27.5649 274.799 28.0442 274.135 28.2292C272.324 28.7326 270.473 29.0977 268.646 29.5479C267.625 29.8003 267.312 30.4405 267.322 31.5295C267.383 37.9756 267.354 44.4231 267.352 50.8692C267.35 52.7792 267.197 52.9238 265.241 52.9274C264.11 52.9288 262.98 52.9018 261.85 52.9338C260.792 52.9649 260.249 52.5466 260.25 51.4378C260.261 42.2862 260.259 33.1347 260.253 23.9831C260.252 23.0331 260.682 22.5666 261.646 22.5779C262.731 22.5907 263.816 22.5779 264.902 22.5786C266.937 22.5807 266.937 22.5815 267.135 24.1809C269.347 23.5315 271.596 22.8346 273.867 22.2241C274.752 21.9866 275.571 22.2121 276 23.1607V27.2196Z" fill="#3D4954"/>
<path id="Fill 67" fill-rule="evenodd" clip-rule="evenodd" d="M201.9 11.8701C202.217 12.36 202.755 12.8313 202.806 13.3433C202.936 14.6511 202.84 15.9769 202.852 17.2951C202.86 18.2043 202.424 18.7067 201.408 18.7088C199.74 18.7108 198.072 18.7247 196.404 18.6984C195.495 18.6839 195.01 18.2375 195.019 17.3643C195.031 16.0018 194.946 14.6338 195.061 13.2796C195.102 12.7932 195.598 12.3386 195.885 11.8701H201.9Z" fill="#3D4954"/>
<path id="Fill 69" fill-rule="evenodd" clip-rule="evenodd" d="M102.832 24.5837C103.719 24.1209 104.564 23.6396 105.442 23.2301C107.826 22.1199 110.329 21.8864 112.88 22.3975C113.649 22.5515 114.562 22.785 115.067 23.3145C116.325 24.6348 117.415 24.2188 118.771 23.5161C120.949 22.3861 123.359 22.0781 125.785 22.1455C130.676 22.2818 133.552 24.9443 133.969 29.9753C134.243 33.2958 134.193 36.6468 134.228 39.985C134.267 43.6873 134.245 47.3897 134.232 51.0927C134.227 52.6145 133.92 52.9105 132.434 52.9226C131.32 52.9311 130.205 52.929 129.09 52.9233C127.459 52.9155 127.212 52.6891 127.21 51.0515C127.199 45.2716 127.207 39.4924 127.201 33.7125C127.2 33.1723 127.182 32.6293 127.131 32.092C126.83 28.905 125.903 28.0958 122.762 28.2683C122.495 28.2832 122.227 28.2988 121.965 28.3456C118.64 28.9405 118.542 29.1534 118.578 32.5115C118.647 38.7861 118.617 45.0629 118.638 51.339C118.641 52.4782 118.113 52.9723 116.989 52.9332C115.787 52.8921 114.582 52.9325 113.378 52.9226C111.903 52.9105 111.579 52.6003 111.576 51.0884C111.565 45.4441 111.573 39.7997 111.571 34.1554C111.57 33.3881 111.57 32.6194 111.534 31.8535C111.396 28.9099 109.871 27.6763 107.011 28.3598C105.815 28.6459 104.662 29.2009 103.568 29.783C103.244 29.9548 103.031 30.6369 103.029 31.0869C102.995 37.6788 103.007 44.2715 103.004 50.8641C103.004 52.7771 102.852 52.9212 100.923 52.924C99.8088 52.9261 98.6931 52.8935 97.5796 52.9325C96.4261 52.973 95.9979 52.4271 96 51.2943C96.0175 42.2187 96.0161 33.1425 96.0014 24.0669C96 22.9738 96.4583 22.499 97.5312 22.5345C98.5551 22.5678 99.5817 22.5394 100.607 22.5409C102.607 22.5437 102.607 22.5437 102.832 24.5837Z" fill="#3D4954"/>
<path id="Fill 71" fill-rule="evenodd" clip-rule="evenodd" d="M150.359 47.313C150.896 45.199 151.441 43.0871 151.968 40.971C153.301 35.6204 154.65 30.2739 155.938 24.9119C156.213 23.7672 156.7 23.2037 157.931 23.285C159.258 23.3727 160.594 23.2957 161.927 23.3077C163.482 23.3211 163.743 23.6668 163.317 25.182C161.643 31.1372 159.962 37.0902 158.279 43.0433C156.975 47.6559 155.697 52.2776 154.342 56.8754C153.456 59.8837 152.143 62.6192 148.851 63.6295C145.26 64.7317 141.653 64.4468 138.086 63.5142C137.663 63.4032 137.119 62.6573 137.113 62.1992C137.05 57.8044 136.668 58.2569 140.626 58.4294C141.823 58.4824 143.019 58.6182 144.215 58.6224C146.606 58.6302 147.576 57.8857 148.302 55.5822C148.488 54.989 148.634 54.3824 148.817 53.7101C148.604 53.6542 148.448 53.5736 148.296 53.5786C146.076 53.6584 144.658 52.5081 143.969 50.4875C143.218 48.2872 142.602 46.0382 141.966 43.7984C140.206 37.5936 138.461 31.3846 136.723 25.1742C136.257 23.5148 136.424 23.3162 138.168 23.3063C139.455 23.2992 140.747 23.3678 142.03 23.2865C143.179 23.2136 143.714 23.6944 143.98 24.7995C145.64 31.6816 147.333 38.5566 149.038 45.4281C149.206 46.1047 149.532 46.741 149.785 47.3964C149.976 47.3688 150.167 47.3413 150.359 47.313Z" fill="#3D4954"/>
<path id="Fill 73" fill-rule="evenodd" clip-rule="evenodd" d="M249.6 34.8545C249.589 32.3679 249.044 30.2436 246.786 28.9543C244.76 27.7976 242.66 27.9106 240.745 29.1483C238.712 30.4635 238.179 32.5236 238.184 34.8545H249.6ZM238.255 39.9127C237.828 43.9204 240.237 46.7379 244.245 46.7805C247.232 46.8119 250.228 46.599 253.208 46.37C255.578 46.1878 255.72 46.2227 255.712 48.504C255.7 52.3972 255.984 51.7501 252.504 52.2897C248.742 52.8733 244.922 53.2733 241.135 52.532C235.484 51.4248 231.99 48.1662 231.311 42.5983C230.86 38.9019 230.873 35.015 231.526 31.3578C232.605 25.3124 238 21.7661 244.444 22.1675C251.813 22.6269 256.069 26.6506 256.737 33.8527C256.875 35.3515 256.844 36.8656 256.874 38.3735C256.896 39.4611 256.413 39.9428 255.222 39.9323C250.048 39.8862 244.875 39.9127 239.702 39.9127H238.255Z" fill="#3D4954"/>
<path id="Fill 75" fill-rule="evenodd" clip-rule="evenodd" d="M175.371 29.5737C179.59 29.5737 183.655 29.5786 187.72 29.5723C191.116 29.5666 190.939 29.3172 190.92 32.7574C190.918 33.1593 190.9 33.5634 190.923 33.9639C190.992 35.1261 190.427 35.535 189.3 35.5252C185.182 35.4922 181.063 35.5126 176.945 35.5126H175.371V37.0879C175.371 41.6025 175.371 46.1164 175.37 50.631C175.369 52.8774 175.313 52.9294 173.004 52.9301C171.84 52.9301 170.676 52.9125 169.512 52.9343C168.524 52.9526 168.015 52.5521 168.017 51.5142C168.035 41.8154 167.93 32.1145 168.091 22.4185C168.186 16.6665 171.632 13.227 177.507 13.0365C181.691 12.9009 185.892 13.3352 190.086 13.5186C191.181 13.5671 191.63 14.1222 191.625 15.2422C191.605 19.8517 191.835 19.1335 187.782 19.1701C185.052 19.1947 182.32 19.1441 179.59 19.1883C176.616 19.2368 175.697 20.1278 175.445 23.0719C175.402 23.561 175.376 24.0529 175.374 24.544C175.365 26.1482 175.371 27.7531 175.371 29.5737Z" fill="#3D4954"/>
<path id="Fill 77" fill-rule="evenodd" clip-rule="evenodd" d="M217.872 32.8766C219.422 30.217 220.964 27.7375 222.33 25.1575C223.055 23.789 223.909 23.1169 225.445 23.3099C226.483 23.439 227.55 23.2948 228.6 23.3507C229.128 23.3787 229.649 23.5781 230.173 23.7C229.982 24.1849 229.859 24.715 229.589 25.146C227.138 29.0823 224.69 33.0222 222.17 36.9112C221.593 37.8035 221.569 38.4117 222.166 39.3133C224.996 43.5889 227.757 47.9153 230.519 52.2397C230.765 52.6256 230.843 53.1262 231 53.5731C230.525 53.728 230.055 53.997 229.576 54.0156C228.086 54.0737 226.589 53.9618 225.104 54.0615C223.98 54.1361 223.314 53.652 222.747 52.7195C221.11 50.0255 219.427 47.3616 217.759 44.6877C217.525 44.3133 217.278 43.9489 216.926 43.4103C216.03 44.91 215.207 46.2857 214.386 47.6643C213.328 49.4453 212.338 51.2771 211.176 52.9828C210.816 53.5099 210.014 53.9238 209.377 53.9898C207.944 54.1383 206.486 54.0572 205.04 54.0228C204.681 54.0142 204.066 53.8901 204.024 53.7079C203.942 53.3421 204.079 52.835 204.29 52.4986C207.068 48.0767 209.856 43.6606 212.695 39.2803C213.212 38.4813 213.245 37.9362 212.704 37.1156C210.08 33.1334 207.52 29.1039 204.967 25.0707C204.728 24.6942 204.688 24.1792 204.556 23.7287C204.996 23.5975 205.434 23.3658 205.877 23.3529C207.454 23.3063 209.037 23.3859 210.613 23.3149C211.573 23.2718 212.151 23.6771 212.644 24.4847C214.33 27.244 216.059 29.9746 217.872 32.8766Z" fill="#3D4954"/>
<path id="Fill 79" fill-rule="evenodd" clip-rule="evenodd" d="M201.738 38.5589C201.738 43.083 201.744 47.6072 201.736 52.1306C201.732 53.7794 201.464 54.0605 199.967 54.0706C198.901 54.0778 197.836 54.0778 196.77 54.0706C195.243 54.0605 195.009 53.8233 195.007 52.1328C195 43.9538 195.004 35.7741 195.004 27.5943C195.004 26.6797 195.023 25.7658 195.001 24.8526C194.974 23.7719 195.396 23.2478 196.448 23.2844C197.683 23.3276 198.922 23.3376 200.156 23.2808C201.317 23.2284 201.758 23.7655 201.75 24.9871C201.721 29.5106 201.738 34.0347 201.738 38.5589Z" fill="#3D4954"/>
</g>
<g id="Group">
<path id="Fill 51" fill-rule="evenodd" clip-rule="evenodd" d="M47.29 20.6905L15.6906 32.437C15.6375 32.4559 15.5854 32.4778 15.535 32.5028C15.4235 32.5583 15.3213 32.6277 15.2295 32.7085C15.0433 32.8733 14.8985 33.0886 14.8175 33.3405C14.7913 33.423 14.772 33.5084 14.7608 33.5958C14.7271 33.8536 14.7647 34.1075 14.8595 34.3345C14.8995 34.4305 14.9496 34.5213 15.0086 34.6057C15.0106 34.6057 15.0089 34.6063 15.0092 34.6063C15.2003 34.8788 15.4864 35.0845 15.8325 35.1666H15.8332C15.8342 35.167 15.8348 35.167 15.8355 35.167C15.8365 35.1673 15.8368 35.1676 15.8375 35.1676C15.8391 35.168 15.8394 35.168 15.8404 35.1683L31.2891 38.74L48.7652 21.0202C48.3791 20.6284 47.8029 20.4998 47.29 20.6905Z" fill="#2A74DB"/>
<path id="Fill 53" fill-rule="evenodd" clip-rule="evenodd" d="M48.6121 21.2686L31.136 38.9884L34.6589 54.6526C34.6589 54.6536 34.6593 54.6539 34.6596 54.6552C34.6596 54.6562 34.6596 54.6565 34.6599 54.6575C34.6599 54.6582 34.6602 54.6585 34.6606 54.6599C34.6606 54.6602 34.6606 54.6602 34.6606 54.6602C34.7415 55.0115 34.9441 55.3016 35.2128 55.4953C35.2132 55.4956 35.2135 55.494 35.2138 55.496C35.2967 55.5558 35.3865 55.6066 35.4813 55.6472C35.7051 55.7436 35.9552 55.7814 36.2095 55.7472C36.2957 55.7359 36.3803 55.7163 36.4615 55.6894C36.7096 55.6076 36.9224 55.4608 37.0849 55.2717C37.1642 55.179 37.2327 55.0753 37.2875 54.9623C37.312 54.9111 37.334 54.8583 37.3524 54.8044L48.9372 22.7643C49.1254 22.2442 48.9988 21.66 48.6121 21.2686Z" fill="#2A74DB"/>
<path id="Fill 55" fill-rule="evenodd" clip-rule="evenodd" d="M54.9614 6.40647C48.3229 1.67692 40.1898 -0.556587 32.061 0.118019C23.8359 0.800268 16.0876 4.43948 10.2439 10.3647C-1.7277 22.5033 -3.4038 41.5225 6.25916 55.5875C6.82387 56.4094 7.72747 56.85 8.64614 56.85C9.21937 56.85 9.7985 56.6785 10.3045 56.321C10.628 56.0923 10.8909 55.8089 11.0908 55.4922C11.7053 54.5185 11.7204 53.2261 11.0282 52.2188C2.97678 40.499 4.37527 24.6494 14.3539 14.5316C19.2245 9.59307 25.6814 6.56034 32.5353 5.99174C39.3137 5.42879 46.0906 7.28878 51.62 11.2284C52.6049 11.9299 53.8713 11.9249 54.8322 11.3161C55.1518 11.1134 55.4379 10.8439 55.6683 10.5116C56.5909 9.18 56.2743 7.34195 54.9614 6.40647Z" fill="#2A74DB"/>
<path id="Fill 57" fill-rule="evenodd" clip-rule="evenodd" d="M63.5345 14.8739C62.6096 13.544 60.7968 13.2256 59.4845 14.1641C59.1568 14.3987 58.891 14.6895 58.6917 15.0145C58.0936 15.9895 58.091 17.2729 58.7845 18.2702C62.6847 23.8777 64.5292 30.7561 63.9796 37.638C63.4234 44.5964 60.4314 51.1521 55.5552 56.0966C49.9284 61.8015 42.4673 64.7399 34.9563 64.7396C29.2876 64.7392 23.5903 63.065 18.6355 59.6431C17.6355 58.9526 16.3622 58.9808 15.4088 59.6126C15.0974 59.8189 14.8202 60.0888 14.5976 60.4194C13.694 61.7646 14.0372 63.5977 15.3636 64.5139C21.3125 68.622 28.148 70.6319 34.9533 70.6312C43.9628 70.6306 52.9165 67.1063 59.6648 60.2639C65.5154 54.3314 69.1052 46.4651 69.7725 38.1139C70.4323 29.8598 68.2167 21.6063 63.5345 14.8739Z" fill="#2A74DB"/>
<g id="Group 61">
<mask id="mask0" mask-type="alpha" maskUnits="userSpaceOnUse" x="4" y="3" width="52" height="53">
<path id="Clip 60" fill-rule="evenodd" clip-rule="evenodd" d="M4.22266 29.5881V3.82422H55.1355V29.5881V55.3519H4.22266V29.5881Z" fill="white"/>
</mask>
<g mask="url(#mask0)">
<path id="Fill 59" fill-rule="evenodd" clip-rule="evenodd" d="M11.3318 52.0791C3.28006 40.3596 4.67888 24.5097 14.6575 14.3919C19.5281 9.45335 25.9847 6.42029 32.8389 5.85169C39.6174 5.28874 46.3942 7.14906 51.9236 11.0884C52.9085 11.7905 54.1746 11.7849 55.1355 11.1764C49.7487 6.58877 42.8011 3.82422 35.2157 3.82422C18.0988 3.82422 4.22266 17.8939 4.22266 35.2495C4.22266 42.8962 6.91706 49.9034 11.3947 55.3521C12.0089 54.3788 12.024 53.0867 11.3318 52.0791Z" fill="#2A74DB"/>
</g>
</g>
</g>
</g>
</svg>
